<svg width="642" height="105" viewBox="0 0 642 105" fill="none" xmlns="http://www.w3.org/2000/svg">
<path d="M0.584 67.16C0.584 59.8213 1.94933 53.3787 4.68 47.832C7.496 42.2853 11.2933 38.0187 16.072 35.032C20.8507 32.0453 26.184 30.552 32.072 30.552C37.1067 30.552 41.5013 31.576 45.256 33.624C49.096 35.672 52.04 38.36 54.088 41.688V31.576H75.976V103H54.088V92.888C51.9547 96.216 48.968 98.904 45.128 100.952C41.3733 103 36.9787 104.024 31.944 104.024C26.1413 104.024 20.8507 102.531 16.072 99.544C11.2933 96.472 7.496 92.1627 4.68 86.616C1.94933 80.984 0.584 74.4987 0.584 67.16ZM54.088 67.288C54.088 61.8267 52.552 57.5173 49.48 54.36C46.4933 51.2027 42.824 49.624 38.472 49.624C34.12 49.624 30.408 51.2027 27.336 54.36C24.3493 57.432 22.856 61.6987 22.856 67.16C22.856 72.6213 24.3493 76.9733 27.336 80.216C30.408 83.3733 34.12 84.952 38.472 84.952C42.824 84.952 46.4933 83.3733 49.48 80.216C52.552 77.0587 54.088 72.7493 54.088 67.288ZM134.179 103L112.419 73.048V103H90.531V8.28H112.419V60.632L134.051 31.576H161.059L131.363 67.416L161.315 103H134.179ZM179.384 24.152C175.544 24.152 172.387 23.0427 169.912 20.824C167.523 18.52 166.328 15.704 166.328 12.376C166.328 8.96266 167.523 6.14666 169.912 3.92799C172.387 1.62399 175.544 0.471992 179.384 0.471992C183.139 0.471992 186.211 1.62399 188.6 3.92799C191.075 6.14666 192.312 8.96266 192.312 12.376C192.312 15.704 191.075 18.52 188.6 20.824C186.211 23.0427 183.139 24.152 179.384 24.152ZM190.264 31.576V103H168.376V31.576H190.264ZM226.734 43.48C229.294 39.5547 232.494 36.4827 236.334 34.264C240.174 31.96 244.441 30.808 249.134 30.808V53.976H243.118C237.657 53.976 233.561 55.1707 230.83 57.56C228.099 59.864 226.734 63.96 226.734 69.848V103H204.846V31.576H226.734V43.48ZM253.964 67.16C253.964 59.8213 255.329 53.3787 258.06 47.832C260.876 42.2853 264.673 38.0187 269.452 35.032C274.231 32.0453 279.564 30.552 285.452 30.552C290.487 30.552 294.881 31.576 298.636 33.624C302.476 35.672 305.42 38.36 307.468 41.688V31.576H329.356V103H307.468V92.888C305.335 96.216 302.348 98.904 298.508 100.952C294.753 103 290.359 104.024 285.324 104.024C279.521 104.024 274.231 102.531 269.452 99.544C264.673 96.472 260.876 92.1627 258.06 86.616C255.329 80.984 253.964 74.4987 253.964 67.16ZM307.468 67.288C307.468 61.8267 305.932 57.5173 302.86 54.36C299.873 51.2027 296.204 49.624 291.852 49.624C287.5 49.624 283.788 51.2027 280.716 54.36C277.729 57.432 276.236 61.6987 276.236 67.16C276.236 72.6213 277.729 76.9733 280.716 80.216C283.788 83.3733 287.5 84.952 291.852 84.952C296.204 84.952 299.873 83.3733 302.86 80.216C305.932 77.0587 307.468 72.7493 307.468 67.288Z" fill="white"/>
<path d="M354.151 104.024C350.311 104.024 347.154 102.915 344.679 100.696C342.29 98.392 341.095 95.576 341.095 92.248C341.095 88.8347 342.29 85.976 344.679 83.672C347.154 81.368 350.311 80.216 354.151 80.216C357.906 80.216 360.978 81.368 363.367 83.672C365.842 85.976 367.079 88.8347 367.079 92.248C367.079 95.576 365.842 98.392 363.367 100.696C360.978 102.915 357.906 104.024 354.151 104.024ZM400.644 8.28V103H378.756V8.28H400.644ZM447.738 104.024C440.741 104.024 434.426 102.531 428.794 99.544C423.247 96.5573 418.853 92.2907 415.61 86.744C412.453 81.1973 410.874 74.712 410.874 67.288C410.874 59.9493 412.495 53.5067 415.738 47.96C418.981 42.328 423.418 38.0187 429.05 35.032C434.682 32.0453 440.997 30.552 447.994 30.552C454.991 30.552 461.306 32.0453 466.938 35.032C472.57 38.0187 477.007 42.328 480.25 47.96C483.493 53.5067 485.114 59.9493 485.114 67.288C485.114 74.6267 483.45 81.112 480.122 86.744C476.879 92.2907 472.399 96.5573 466.682 99.544C461.05 102.531 454.735 104.024 447.738 104.024ZM447.738 85.08C451.919 85.08 455.461 83.544 458.362 80.472C461.349 77.4 462.842 73.0053 462.842 67.288C462.842 61.5707 461.391 57.176 458.49 54.104C455.674 51.032 452.175 49.496 447.994 49.496C443.727 49.496 440.186 51.032 437.37 54.104C434.554 57.0907 433.146 61.4853 433.146 67.288C433.146 73.0053 434.511 77.4 437.242 80.472C440.058 83.544 443.557 85.08 447.738 85.08ZM527.574 82.52L543.062 31.576H566.358L541.014 103H514.006L488.662 31.576H512.086L527.574 82.52ZM641.619 66.136C641.619 68.184 641.491 70.3173 641.235 72.536H591.699C592.04 76.9733 593.448 80.3867 595.923 82.776C598.483 85.08 601.598 86.232 605.267 86.232C610.728 86.232 614.526 83.928 616.659 79.32H639.955C638.76 84.0133 636.584 88.2373 633.427 91.992C630.355 95.7467 626.472 98.6907 621.779 100.824C617.086 102.957 611.838 104.024 606.035 104.024C599.038 104.024 592.808 102.531 587.347 99.544C581.886 96.5573 577.619 92.2907 574.547 86.744C571.475 81.1973 569.939 74.712 569.939 67.288C569.939 59.864 571.432 53.3787 574.419 47.832C577.491 42.2853 581.758 38.0187 587.219 35.032C592.68 32.0453 598.952 30.552 606.035 30.552C612.947 30.552 619.091 32.0027 624.467 34.904C629.843 37.8053 634.024 41.944 637.011 47.32C640.083 52.696 641.619 58.968 641.619 66.136ZM619.219 60.376C619.219 56.6213 617.939 53.6347 615.379 51.416C612.819 49.1973 609.619 48.088 605.779 48.088C602.11 48.088 598.995 49.1547 596.435 51.288C593.96 53.4213 592.424 56.4507 591.827 60.376H619.219Z" fill="#F76D83"/>
</svg>
